# xmcd
#
# Track frame offsets:
#	150
#	15810
#	28482
#	44247
#	60312
#	80042
#	96407
#	107612
#	118945
#	130847
#	136695
#	149192
#	171895
#	184712
#	200117
#	216482
#	228862
#	250525
#	259615
#	270290
#	284557
#	302150
#	316515
#	331227
#
# Disc length: 4669 seconds
#
# Revision: 1
# Processed by: cddbd v1.5.1PL0 Copyright (c) Steve Scherf et al.
# Submitted via: CDex 1.50Beta5
#
DISCID=63123b18
DTITLE=Various Artist - classical ever!
DYEAR=2002
DGENRE=Classical
TTITLE0=サラサーテ/「ツィゴイネルワイゼン」より
TTITLE1=エルガー/愛のあいさつ
TTITLE2=チャイコフスキー/メロディ〜「なつかしい土地の想い出」より
TTITLE3=メンデルスゾーン/ヴァイオリン協奏曲 ホ短調 第1楽章より
TTITLE4=クライスラー/愛の悲しみ
TTITLE5=クライスラー/愛の喜び
TTITLE6=ブラームス/ハンガリー舞曲 第5番 ト短調
TTITLE7=Wolfgang Amadeus Mozart (1756 - 1791)/「ロンド」より〜「ハフナー・セレナード」より
TTITLE8=ドビュッシー/美しい夕暮れ
TTITLE9=リムスキー＝コルサコフ/熊蜂の飛行
TTITLE10=ガーシュイン/そんなことはどうでもいいさ〜歌劇「ボーギーとベス」より
TTITLE11=ウィリアムス/映画「シンドラーのリスト」のテーマ
TTITLE12=クロール/バンジョーとヴァイオリン
TTITLE13=ジョプリン/ジ・イージー・ウィナーズ
TTITLE14=パガニーニ/カンタービレ ニ長調
TTITLE15=マスネ/「タイスの瞑想曲」より
TTITLE16=チャイコフスキー/ヴァイオリン協奏曲 ニ長調 第1楽章より
TTITLE17=ヴィヴァルディ/ラルゴ〜協奏曲集「四季」第4番「冬」より
TTITLE18=ベートーヴェン/ロマンス 第2番 ヘ長調より
TTITLE19=グルック/メロディ
TTITLE20=フォーレ/子守歌
TTITLE21=J.S.バッハ〜グノー編/アヴェ・マリア
TTITLE22=サラサーテ/サパテアード
TTITLE23=イザイ/子供の夢
EXTD=
EXTT0=
EXTT1=
EXTT2=
EXTT3=
EXTT4=
EXTT5=
EXTT6=
EXTT7=
EXTT8=
EXTT9=
EXTT10=
EXTT11=
EXTT12=
EXTT13=
EXTT14=
EXTT15=
EXTT16=
EXTT17=
EXTT18=
EXTT19=
EXTT20=
EXTT21=
EXTT22=
EXTT23=
PLAYORDER=
